<?xml version="1.0" encoding="UTF-8" standalone="no"?>
<svg
   xmlns:dc="http://purl.org/dc/elements/1.1/"
   xmlns:cc="http://creativecommons.org/ns#"
   xmlns:rdf="http://www.w3.org/1999/02/22-rdf-syntax-ns#"
   xmlns:svg="http://www.w3.org/2000/svg"
   xmlns="http://www.w3.org/2000/svg"
   xmlns:sodipodi="http://sodipodi.sourceforge.net/DTD/sodipodi-0.dtd"
   xmlns:inkscape="http://www.inkscape.org/namespaces/inkscape"
   viewBox="0 0 120 60.000001"
   version="1.1"
   id="svg22"
   sodipodi:docname="nuxtjs-ar21.svg"
   width="120"
   height="60"
   inkscape:version="0.92.4 (5da689c313, 2019-01-14)">
  <metadata
     id="metadata26">
    <rdf:RDF>
      <cc:Work
         rdf:about="">
        <dc:format>image/svg+xml</dc:format>
        <dc:type
           rdf:resource="http://purl.org/dc/dcmitype/StillImage" />
        <dc:title>NuxtJS</dc:title>
      </cc:Work>
    </rdf:RDF>
  </metadata>
  <sodipodi:namedview
     pagecolor="#ffffff"
     bordercolor="#666666"
     borderopacity="1"
     objecttolerance="10"
     gridtolerance="10"
     guidetolerance="10"
     inkscape:pageopacity="0"
     inkscape:pageshadow="2"
     inkscape:window-width="1920"
     inkscape:window-height="1001"
     id="namedview24"
     showgrid="false"
     inkscape:zoom="4.3626521"
     inkscape:cx="30.795554"
     inkscape:cy="18.7365"
     inkscape:window-x="-9"
     inkscape:window-y="-9"
     inkscape:window-maximized="1"
     inkscape:current-layer="svg22" />
  <defs
     id="defs4">
    <style
       id="style2">.cls-1{fill:#2c4a5d;}.cls-2{fill:#00c391;}.cls-3{fill:#00c492;}.cls-4{fill:#008776;}.cls-5{fill:#2d4a5d;}</style>
  </defs>
  <title
     id="title6">NuxtJS</title>
  <g
     data-name="Calque 1-2"
     id="Calque_1-2"
     transform="matrix(0.49989261,0,0,0.49989261,5.0603376,20.629685)">
    <path
       style="fill:#2c4a5d"
       inkscape:connector-curvature="0"
       id="path8"
       d="m 87.4718,11.091 a 1.6088,1.6088 0 0 1 0.4468,1.167 v 22.4343 a 1.8029,1.8029 0 0 1 -0.4994,1.2931 1.6979,1.6979 0 0 1 -1.2773,0.5257 2.5354,2.5354 0 0 1 -0.7937,-0.1262 1.3614,1.3614 0 0 1 -0.61,-0.389 L 70.2045,17.0728 v 17.814 a 1.5771,1.5771 0 0 1 -1.5282,1.6243 q -0.048,0.0014 -0.0961,0 A 1.5087,1.5087 0 0 1 67.4343,36.0485 1.6086,1.6086 0 0 1 66.9928,34.8868 V 12.4051 a 1.7083,1.7083 0 0 1 0.5256,-1.272 1.6562,1.6562 0 0 1 1.2353,-0.4994 2.25,2.25 0 0 1 0.8515,0.163 1.4718,1.4718 0 0 1 0.6256,0.4625 L 84.7017,30.2244 V 12.258 A 1.5769,1.5769 0 0 1 86.23,10.6337 c 0.032,-9e-4 0.0641,-9e-4 0.0961,0 a 1.5247,1.5247 0 0 1 1.1459,0.4573 z m 29.8564,0 a 1.808,1.808 0 0 1 0.4626,1.2773 v 14.1924 a 10.6231,10.6231 0 0 1 -1.2931,5.2564 9.3981,9.3981 0 0 1 -3.5691,3.6427 10.0712,10.0712 0 0 1 -5.12,1.3351 10.2563,10.2563 0 0 1 -5.1775,-1.3088 9.3679,9.3679 0 0 1 -3.5849,-3.6427 10.6233,10.6233 0 0 1 -1.2931,-5.2565 V 12.3946 a 1.6977,1.6977 0 0 1 0.5257,-1.2773 1.845,1.845 0 0 1 1.33,-0.5256 1.7291,1.7291 0 0 1 1.24,0.5256 1.6823,1.6823 0 0 1 0.5257,1.2563 v 14.1923 a 6.7653,6.7653 0 0 0 0.8883,3.4587 6.3811,6.3811 0 0 0 5.5455,3.2327 6.602,6.602 0 0 0 3.2906,-0.8515 6.4231,6.4231 0 0 0 2.4389,-2.3812 6.6751,6.6751 0 0 0 0.9041,-3.4587 V 12.3736 a 1.8715,1.8715 0 0 1 0.4416,-1.2773 1.5767,1.5767 0 0 1 1.2247,-0.5256 1.6029,1.6029 0 0 1 1.2195,0.52 z m 28.453,22.76 a 1.7346,1.7346 0 0 1 0.3311,1.0513 1.6083,1.6083 0 0 1 -0.5256,1.2563 1.75,1.75 0 0 1 -1.2037,0.4783 1.6557,1.6557 0 0 1 -1.44,-0.7359 l -7.1855,-9.5929 -7.0226,9.5771 a 1.6974,1.6974 0 0 1 -1.44,0.7727 1.53,1.53 0 0 1 -1.13,-0.4625 1.4351,1.4351 0 0 1 -0.4625,-1.0513 1.9864,1.9864 0 0 1 0.4468,-1.2195 l 7.58,-10.3183 -7.6165,-10.2395 a 1.7186,1.7186 0 0 1 -0.3732,-1.0513 1.6817,1.6817 0 0 1 0.5256,-1.2563 1.73,1.73 0 0 1 1.24,-0.5256 1.797,1.797 0 0 1 0.7937,0.1892 1.63,1.63 0 0 1 0.6466,0.5519 l 7.1014,9.54 7.0331,-9.4458 a 1.7873,1.7873 0 0 1 1.4035,-0.8147 1.5769,1.5769 0 0 1 1.1669,0.5256 1.5771,1.5771 0 0 1 0.5256,1.13 1.86,1.86 0 0 1 -0.3679,1.0512 l -7.717,10.272 z m 26.6763,-22.76 a 1.6137,1.6137 0 0 1 0.5256,1.2406 1.5764,1.5764 0 0 1 -0.5256,1.2194 1.871,1.871 0 0 1 -1.2773,0.4416 h -6.581 V 34.74 a 1.6875,1.6875 0 0 1 -0.5257,1.2562 2.029,2.029 0 0 1 -2.7018,0 1.7029,1.7029 0 0 1 -0.5256,-1.2562 V 13.9926 h -6.5653 a 1.8084,1.8084 0 0 1 -1.272,-0.4573 1.6135,1.6135 0 0 1 -0.4994,-1.24 1.5768,1.5768 0 0 1 0.4994,-1.2038 1.8084,1.8084 0 0 1 1.272,-0.4573 H 171.18 a 1.83,1.83 0 0 1 1.2775,0.4568 z"
       class="cls-1" />
    <path
       style="fill:#00c391"
       inkscape:connector-curvature="0"
       id="path10"
       d="M 180.5524,35.8488 A 7.7793,7.7793 0 0 1 177.6666,33 a 1.871,1.871 0 0 1 -0.3364,-0.9987 1.5768,1.5768 0 0 1 0.5572,-1.2038 1.7081,1.7081 0 0 1 1.1459,-0.5256 2.3709,2.3709 0 0 1 1.6663,0.9251 4.4624,4.4624 0 0 0 3.8792,2.1446 4.73,4.73 0 0 0 3.4377,-1.3666 4.5152,4.5152 0 0 0 1.4087,-3.3641 V 12.4051 a 1.6608,1.6608 0 0 1 0.5519,-1.2562 1.829,1.829 0 0 1 1.2931,-0.5257 1.7559,1.7559 0 0 1 1.3141,0.4994 1.73,1.73 0 0 1 0.4994,1.272 V 28.637 a 8.0062,8.0062 0 0 1 -1.1091,4.142 8.1627,8.1627 0 0 1 -3.0487,2.9909 8.59,8.59 0 0 1 -4.3471,1.1144 8.0168,8.0168 0 0 1 -4.0264,-1.0355 z m 25.42,0.2733 a 12.1841,12.1841 0 0 1 -3.9581,-2.4548 1.9764,1.9764 0 0 1 -0.7727,-1.5191 1.6769,1.6769 0 0 1 0.5257,-1.1984 1.6452,1.6452 0 0 1 1.2195,-0.5257 1.5141,1.5141 0 0 1 1.0512,0.4048 10.2829,10.2829 0 0 0 3.0488,2.0132 9.2308,9.2308 0 0 0 3.5691,0.6518 6.9335,6.9335 0 0 0 3.937,-1.0776 3.1537,3.1537 0 0 0 1.6085,-2.6965 3.4588,3.4588 0 0 0 -1.6085,-2.9752 14.2927,14.2927 0 0 0 -4.7829,-1.7556 12.837,12.837 0 0 1 -5.8662,-2.5546 6.1414,6.1414 0 0 1 -2.05,-4.9148 6.54,6.54 0 0 1 1.1564,-3.8529 7.3594,7.3594 0 0 1 3.1539,-2.5336 11.3166,11.3166 0 0 1 4.5836,-0.8883 12.5309,12.5309 0 0 1 4.326,0.7411 9.098,9.098 0 0 1 3.29,1.9607 2.1022,2.1022 0 0 1 0.8516,1.5769 1.6511,1.6511 0 0 1 -0.4994,1.1827 1.5769,1.5769 0 0 1 -1.2037,0.5256 1.2145,1.2145 0 0 1 -0.8463,-0.3 7.6269,7.6269 0 0 0 -2.665,-1.6242 8.8439,8.8439 0 0 0 -3.2274,-0.6413 6.7759,6.7759 0 0 0 -3.9371,1.02 3.2695,3.2695 0 0 0 0,5.4509 13.7741,13.7741 0 0 0 4.3471,1.63 22.9258,22.9258 0 0 1 4.7307,1.4771 6.6653,6.6653 0 0 1 2.828,2.3654 7.1118,7.1118 0 0 1 0.9935,3.958 6.34,6.34 0 0 1 -1.1985,3.8057 7.9267,7.9267 0 0 1 -3.2748,2.5914 11.0376,11.0376 0 0 1 -4.5468,0.9251 13.7046,13.7046 0 0 1 -4.7832,-0.7678 z"
       class="cls-2" />
    <path
       style="fill:#00c492"
       inkscape:connector-curvature="0"
       id="path12"
       d="m 15.359,36.2062 a 1.8743,1.8743 0 0 1 -0.1,-0.205 2.6281,2.6281 0 0 1 -0.1787,-1.4823 H 3.1536 L 20.8782,3.3273 26.6971,13.5563 28.3844,10.5707 23.312,1.6347 A 3.1,3.1 0 0 0 20.8362,0 2.7562,2.7562 0 0 0 18.434,1.6558 l -17.9559,31.57 a 3.1754,3.1754 0 0 0 -0.1577,2.98 2.7631,2.7631 0 0 0 2.6282,1.2672 H 17.9872 A 2.756,2.756 0 0 1 15.359,36.2062 Z"
       class="cls-3" />
    <path
       style="fill:#008776"
       inkscape:connector-curvature="0"
       id="path14"
       d="M 49.9357,33.2258 35.181,7.2328 A 3.1078,3.1078 0 0 0 32.6947,5.5771 2.7482,2.7482 0 0 0 30.2925,7.2276 l -1.9081,3.3431 1.6978,2.9856 2.6278,-4.6519 14.5975,25.6145 h -5.5508 a 2.4857,2.4857 0 0 1 -0.1156,1.2615 1.5994,1.5994 0 0 1 -0.1157,0.2576 l -0.0473,0.0946 a 3.1775,3.1775 0 0 1 -2.6755,1.34 h 8.6836 a 3.1718,3.1718 0 0 0 2.6755,-1.34 2.7566,2.7566 0 0 0 -0.226,-2.9068 z"
       class="cls-4" />
    <path
       style="fill:#2d4a5d"
       inkscape:connector-curvature="0"
       id="path16"
       d="m 41.4781,36.1326 0.0473,-0.0946 a 1.5994,1.5994 0 0 0 0.1157,-0.2576 2.4857,2.4857 0 0 0 0.1156,-1.2615 3.8411,3.8411 0 0 0 -0.4836,-1.2931 l -11.18,-19.6695 -1.7083,-2.9856 -1.6978,2.9856 -11.1752,19.67 a 3.9825,3.9825 0 0 0 -0.431,1.2931 2.6284,2.6284 0 0 0 0.163,1.4823 1.8556,1.8556 0 0 0 0.1,0.205 2.7633,2.7633 0 0 0 2.6283,1.2668 h 20.8148 a 3.1849,3.1849 0 0 0 2.6912,-1.3409 z M 28.3844,16.5419 38.6029,34.5189 H 18.1712 Z"
       class="cls-5" />
  </g>
</svg>
